<?xml version="1.0" encoding="UTF-8"?>
<svg width="490px" height="111px" viewBox="0 0 490 111" version="1.1" xmlns="http://www.w3.org/2000/svg" xmlns:xlink="http://www.w3.org/1999/xlink">
    <g id="Page-1" stroke="none" stroke-width="1" fill="none" fill-rule="evenodd">
        <path d="M74.4316406,93.7832031 C74.4316406,95.0771549 74.3928227,96.1769974 74.3151855,97.0827637 C74.2375484,97.9885299 74.1210945,98.7648893 73.9658203,99.4118652 C73.8105461,100.058841 73.6035169,100.615232 73.3447266,101.081055 C73.0859362,101.546877 72.6718778,102.07739 72.1025391,102.672607 C71.5332003,103.267825 70.4333578,104.031245 68.8029785,104.962891 C67.1725993,105.894536 65.1799434,106.787349 62.8249512,107.641357 C60.4699589,108.495366 57.7785796,109.207028 54.7507324,109.776367 C51.7228853,110.345706 48.4492363,110.630371 44.9296875,110.630371 C38.045864,110.630371 31.8349886,109.569347 26.296875,107.447266 C20.7587614,105.325185 16.0488475,102.15505 12.1669922,97.9367676 C8.28513684,93.7184848 5.30909238,88.45218 3.23876953,82.1376953 C1.16844668,75.8232106 0.133300781,68.4736747 0.133300781,60.0888672 C0.133300781,51.5487854 1.27196127,43.9663417 3.54931641,37.3413086 C5.82667154,30.7162755 9.00974518,25.1523663 13.0986328,20.6494141 C17.1875204,16.1464619 22.0915241,12.7304804 27.810791,10.4013672 C33.5300579,8.07225398 39.8315085,6.90771484 46.715332,6.90771484 C49.5102679,6.90771484 52.2016472,7.14062267 54.7895508,7.60644531 C57.3774543,8.07226795 59.7712292,8.68041617 61.9709473,9.4309082 C64.1706653,10.1814002 66.1503818,11.0483349 67.9101562,12.0317383 C69.6699307,13.0151416 70.8991664,13.8561977 71.5979004,14.5549316 C72.2966344,15.2536656 72.7753893,15.8359352 73.0341797,16.3017578 C73.29297,16.7675805 73.4999992,17.3627893 73.6552734,18.0874023 C73.8105477,18.8120153 73.9270016,19.6660107 74.0046387,20.6494141 C74.0822758,21.6328174 74.1210938,22.8491138 74.1210938,24.2983398 C74.1210938,25.851082 74.0693365,27.170893 73.9658203,28.2578125 C73.8623042,29.344732 73.6811536,30.224606 73.4223633,30.8974609 C73.1635729,31.5703159 72.8530292,32.0620102 72.4907227,32.3725586 C72.1284162,32.683107 71.7143578,32.8383789 71.2485352,32.8383789 C70.4721641,32.8383789 69.4887755,32.3855026 68.2983398,31.4797363 C67.1079042,30.5739701 65.5681247,29.5647028 63.6789551,28.4519043 C61.7897855,27.3391058 59.5383431,26.3298385 56.9245605,25.4240723 C54.3107779,24.518306 51.1924009,24.0654297 47.5693359,24.0654297 C43.5839644,24.0654297 40.0256504,24.8806071 36.8942871,26.5109863 C33.7629238,28.1413656 31.0974231,30.4704438 28.8977051,33.498291 C26.697987,36.5261382 25.0288143,40.1879668 23.8901367,44.4838867 C22.7514592,48.7798066 22.1821289,53.6191137 22.1821289,59.0019531 C22.1821289,64.9023733 22.7902771,70.0134061 24.0065918,74.3352051 C25.2229065,78.657004 26.9567759,82.2153181 29.208252,85.0102539 C31.4597281,87.8051898 34.176986,89.8884209 37.3601074,91.2600098 C40.5432288,92.6315987 44.1274215,93.3173828 48.112793,93.3173828 C51.735858,93.3173828 54.8671743,92.8903851 57.5068359,92.036377 C60.1464976,91.1823688 62.4108792,90.2377981 64.3000488,89.2026367 C66.1892184,88.1674753 67.7419373,87.235844 68.958252,86.4077148 C70.1745666,85.5795857 71.1191373,85.1655273 71.7919922,85.1655273 C72.3095729,85.1655273 72.7236313,85.2690419 73.0341797,85.4760742 C73.3447281,85.6831065 73.6035146,86.0971649 73.8105469,86.7182617 C74.0175792,87.3393586 74.172851,88.2062933 74.2763672,89.3190918 C74.3798833,90.4318903 74.4316406,91.9199126 74.4316406,93.7832031 Z M157.891113,39.0493164 C157.891113,44.6909462 157.011239,49.6855251 155.251465,54.0332031 C153.49169,58.3808811 150.929704,62.0427097 147.56543,65.0187988 C144.201155,67.9948879 140.073511,70.2592696 135.182373,71.8120117 C130.291235,73.3647539 124.533236,74.1411133 117.908203,74.1411133 L109.523438,74.1411133 L109.523438,106.205078 C109.523438,106.722659 109.355226,107.188474 109.018799,107.602539 C108.682371,108.016604 108.12598,108.353026 107.349609,108.611816 C106.573238,108.870607 105.538092,109.077636 104.244141,109.23291 C102.950189,109.388184 101.293955,109.46582 99.2753906,109.46582 C97.3085839,109.46582 95.6652898,109.388184 94.345459,109.23291 C93.0256282,109.077636 91.9775429,108.870607 91.2011719,108.611816 C90.4248008,108.353026 89.8813492,108.016604 89.5708008,107.602539 C89.2602524,107.188474 89.1049805,106.722659 89.1049805,106.205078 L89.1049805,15.8359375 C89.1049805,13.4033081 89.7390073,11.5788635 91.0070801,10.3625488 C92.2751528,9.14623415 93.9443256,8.53808594 96.0146484,8.53808594 L119.693848,8.53808594 C122.074719,8.53808594 124.339101,8.6286612 126.487061,8.80981445 C128.635021,8.9909677 131.209946,9.37914741 134.211914,9.97436523 C137.213882,10.5695831 140.254623,11.6694256 143.334229,13.2739258 C146.413834,14.878426 149.040516,16.9098998 151.214355,19.3684082 C153.388194,21.8269166 155.044428,24.6994465 156.183105,27.986084 C157.321783,31.2727215 157.891113,34.9604288 157.891113,39.0493164 Z M136.541016,40.5244141 C136.541016,37.0048652 135.919928,34.1064567 134.677734,31.8291016 C133.435541,29.5517464 131.9087,27.8696343 130.097168,26.7827148 C128.285635,25.6957953 126.383555,25.0100112 124.390869,24.7253418 C122.398183,24.4406724 120.340831,24.2983398 118.21875,24.2983398 L109.523438,24.2983398 L109.523438,58.3808594 L118.68457,58.3808594 C121.945329,58.3808594 124.675526,57.9409224 126.875244,57.0610352 C129.074962,56.1811479 130.873528,54.9519122 132.270996,53.373291 C133.668464,51.7946698 134.729489,49.9055286 135.454102,47.7058105 C136.178715,45.5060925 136.541016,43.1123176 136.541016,40.5244141 Z M233.276367,78.8769531 C233.276367,84.1562764 232.292979,88.7885543 230.326172,92.7739258 C228.359365,96.7592973 225.693864,100.084703 222.32959,102.750244 C218.965315,105.415785 215.031761,107.42138 210.528809,108.76709 C206.025856,110.1128 201.212428,110.785645 196.088379,110.785645 C192.620588,110.785645 189.398697,110.500979 186.422607,109.931641 C183.446518,109.362302 180.819836,108.676518 178.54248,107.874268 C176.265125,107.072017 174.363045,106.230961 172.836182,105.351074 C171.309319,104.471187 170.209476,103.694828 169.536621,103.021973 C168.863766,102.349118 168.385011,101.378668 168.100342,100.110596 C167.815672,98.842523 167.67334,97.0180783 167.67334,94.637207 C167.67334,93.0327068 167.725097,91.6870172 167.828613,90.6000977 C167.932129,89.5131782 168.100341,88.6333041 168.333252,87.9604492 C168.566163,87.2875943 168.876707,86.8088393 169.264893,86.5241699 C169.653078,86.2395005 170.105954,86.097168 170.623535,86.097168 C171.348148,86.097168 172.370355,86.5241657 173.690186,87.3781738 C175.010016,88.232182 176.705068,89.1767526 178.775391,90.2119141 C180.845713,91.2470755 183.317124,92.1916461 186.189697,93.0456543 C189.06227,93.8996625 192.387676,94.3266602 196.166016,94.3266602 C198.650403,94.3266602 200.875967,94.0290557 202.842773,93.4338379 C204.80958,92.8386201 206.478753,91.997564 207.850342,90.9106445 C209.221931,89.823725 210.270016,88.4780354 210.994629,86.8735352 C211.719242,85.2690349 212.081543,83.4834083 212.081543,81.5166016 C212.081543,79.2392464 211.460455,77.2854085 210.218262,75.6550293 C208.976068,74.0246501 207.358653,72.5754458 205.365967,71.307373 C203.373281,70.0393003 201.108899,68.8488825 198.572754,67.736084 C196.036608,66.6232855 193.422865,65.445807 190.731445,64.2036133 C188.040026,62.9614196 185.426282,61.5510333 182.890137,59.9724121 C180.353991,58.3937909 178.08961,56.5046497 176.096924,54.3049316 C174.104238,52.1052136 172.486823,49.5044095 171.244629,46.5024414 C170.002435,43.5004733 169.381348,39.9033413 169.381348,35.7109375 C169.381348,30.8974369 170.274161,26.666278 172.059814,23.017334 C173.845468,19.36839 176.252182,16.3405882 179.280029,13.9338379 C182.307876,11.5270876 185.87913,9.72852158 189.993896,8.53808594 C194.108663,7.3476503 198.469215,6.75244141 203.075684,6.75244141 C205.456555,6.75244141 207.83739,6.93359194 210.218262,7.29589844 C212.599133,7.65820494 214.824697,8.14989924 216.89502,8.77099609 C218.965342,9.39209295 220.802726,10.0908164 222.407227,10.8671875 C224.011727,11.6435586 225.072751,12.2905248 225.590332,12.8081055 C226.107913,13.3256862 226.457274,13.7656232 226.638428,14.1279297 C226.819581,14.4902362 226.974853,14.9689912 227.104248,15.564209 C227.233643,16.1594268 227.324218,16.9099076 227.375977,17.8156738 C227.427735,18.7214401 227.453613,19.8471612 227.453613,21.1928711 C227.453613,22.6938552 227.414795,23.9619089 227.337158,24.9970703 C227.259521,26.0322317 227.130128,26.8862271 226.948975,27.559082 C226.767821,28.231937 226.509035,28.7236313 226.172607,29.0341797 C225.83618,29.3447281 225.383304,29.5 224.813965,29.5 C224.244626,29.5 223.338873,29.1376989 222.09668,28.4130859 C220.854486,27.6884729 219.327646,26.8991742 217.516113,26.045166 C215.704581,25.1911578 213.60841,24.4147984 211.227539,23.7160645 C208.846668,23.0173305 206.232924,22.6679688 203.38623,22.6679688 C201.160633,22.6679688 199.219735,22.9396945 197.563477,23.4831543 C195.907218,24.026614 194.522711,24.7770948 193.409912,25.7346191 C192.297114,26.6921435 191.468997,27.8437433 190.925537,29.1894531 C190.382077,30.535163 190.110352,31.9584886 190.110352,33.4594727 C190.110352,35.6850697 190.7185,37.613029 191.934814,39.2434082 C193.151129,40.8737874 194.781484,42.3229917 196.825928,43.5910645 C198.870372,44.8591372 201.18651,46.049555 203.774414,47.1623535 C206.362318,48.275152 209.00194,49.4526305 211.693359,50.6948242 C214.384779,51.9370179 217.024401,53.3474042 219.612305,54.9260254 C222.200208,56.5046466 224.503408,58.3937878 226.521973,60.5935059 C228.540537,62.7932239 230.170892,65.3810886 231.413086,68.3571777 C232.65528,71.3332668 233.276367,74.8398236 233.276367,78.8769531 Z" id="CPS" fill="#0084ab"></path>
        <path d="M314.928711,106.360352 C314.928711,106.877932 314.773439,107.330809 314.462891,107.718994 C314.152342,108.10718 313.634769,108.430663 312.910156,108.689453 C312.185543,108.948243 311.189215,109.142333 309.921143,109.271729 C308.65307,109.401124 307.087412,109.46582 305.224121,109.46582 C303.309072,109.46582 301.717536,109.401124 300.449463,109.271729 C299.18139,109.142333 298.185062,108.948243 297.460449,108.689453 C296.735836,108.430663 296.218263,108.10718 295.907715,107.718994 C295.597166,107.330809 295.441895,106.877932 295.441895,106.360352 L295.441895,66.8432617 C295.441895,63.4789871 295.196047,60.839365 294.704346,58.9243164 C294.212644,57.0092678 293.500981,55.3659737 292.569336,53.9943848 C291.637691,52.6227959 290.434334,51.5617713 288.959229,50.8112793 C287.484123,50.0607873 285.763193,49.6855469 283.796387,49.6855469 C281.311999,49.6855469 278.80177,50.5912995 276.265625,52.402832 C273.72948,54.2143645 271.089857,56.8539866 268.34668,60.3217773 L268.34668,106.360352 C268.34668,106.877932 268.191408,107.330809 267.880859,107.718994 C267.570311,108.10718 267.039799,108.430663 266.289307,108.689453 C265.538815,108.948243 264.542487,109.142333 263.300293,109.271729 C262.058099,109.401124 260.479502,109.46582 258.564453,109.46582 C256.649404,109.46582 255.070807,109.401124 253.828613,109.271729 C252.58642,109.142333 251.590092,108.948243 250.8396,108.689453 C250.089108,108.430663 249.558595,108.10718 249.248047,107.718994 C248.937498,107.330809 248.782227,106.877932 248.782227,106.360352 L248.782227,4.26806641 C248.782227,3.75048569 248.937498,3.28467004 249.248047,2.87060547 C249.558595,2.4565409 250.089108,2.10717916 250.8396,1.82250977 C251.590092,1.53784037 252.58642,1.31787187 253.828613,1.16259766 C255.070807,1.00732344 256.649404,0.9296875 258.564453,0.9296875 C260.479502,0.9296875 262.058099,1.00732344 263.300293,1.16259766 C264.542487,1.31787187 265.538815,1.53784037 266.289307,1.82250977 C267.039799,2.10717916 267.570311,2.4565409 267.880859,2.87060547 C268.191408,3.28467004 268.34668,3.75048569 268.34668,4.26806641 L268.34668,42.5429688 C271.710954,39.2304522 275.139875,36.7590414 278.633545,35.1286621 C282.127215,33.4982829 285.763165,32.6831055 289.541504,32.6831055 C294.251488,32.6831055 298.223861,33.4594649 301.45874,35.012207 C304.69362,36.5649492 307.307363,38.6869983 309.300049,41.378418 C311.292735,44.0698377 312.729,47.2140933 313.608887,50.8112793 C314.488774,54.4084653 314.928711,58.7690173 314.928711,63.8930664 L314.928711,106.360352 Z M399.785645,106.360352 C399.785645,106.877932 399.656251,107.330809 399.397461,107.718994 C399.138671,108.10718 398.685794,108.430663 398.038818,108.689453 C397.391842,108.948243 396.537847,109.142333 395.476807,109.271729 C394.415766,109.401124 393.083016,109.46582 391.478516,109.46582 C389.770499,109.46582 388.385992,109.401124 387.324951,109.271729 C386.263911,109.142333 385.422855,108.948243 384.801758,108.689453 C384.180661,108.430663 383.740724,108.10718 383.481934,107.718994 C383.223143,107.330809 383.09375,106.877932 383.09375,106.360352 L383.09375,98.3637695 C379.263653,102.504415 375.368916,105.609853 371.409424,107.680176 C367.449931,109.750499 363.348166,110.785645 359.104004,110.785645 C354.342261,110.785645 350.34401,110.009285 347.109131,108.456543 C343.874251,106.903801 341.260508,104.781752 339.267822,102.090332 C337.275137,99.3989123 335.851811,96.2805353 334.997803,92.7351074 C334.143795,89.1896795 333.716797,84.7773701 333.716797,79.4980469 L333.716797,37.1083984 C333.716797,36.5908177 333.859129,36.1379414 334.143799,35.7497559 C334.428468,35.3615703 334.946041,35.0380872 335.696533,34.7792969 C336.447025,34.5205065 337.456292,34.3264167 338.724365,34.1970215 C339.992438,34.0676263 341.558096,34.0029297 343.421387,34.0029297 C345.336435,34.0029297 346.915033,34.0676263 348.157227,34.1970215 C349.39942,34.3264167 350.395748,34.5205065 351.14624,34.7792969 C351.896732,35.0380872 352.427245,35.3615703 352.737793,35.7497559 C353.048341,36.1379414 353.203613,36.5908177 353.203613,37.1083984 L353.203613,76.2373047 C353.203613,79.8603697 353.436521,82.629385 353.902344,84.5444336 C354.368166,86.4594822 355.079829,88.1027763 356.037354,89.4743652 C356.994878,90.8459541 358.211174,91.9069787 359.686279,92.6574707 C361.161384,93.4079627 362.882314,93.7832031 364.849121,93.7832031 C367.333509,93.7832031 369.830798,92.8774505 372.341064,91.065918 C374.851331,89.2543855 377.529771,86.6147634 380.376465,83.1469727 L380.376465,37.1083984 C380.376465,36.5908177 380.518797,36.1379414 380.803467,35.7497559 C381.088136,35.3615703 381.605709,35.0380872 382.356201,34.7792969 C383.106693,34.5205065 384.103021,34.3264167 385.345215,34.1970215 C386.587409,34.0676263 388.166006,34.0029297 390.081055,34.0029297 C391.996103,34.0029297 393.574701,34.0676263 394.816895,34.1970215 C396.059088,34.3264167 397.042477,34.5205065 397.76709,34.7792969 C398.491703,35.0380872 399.009276,35.3615703 399.319824,35.7497559 C399.630373,36.1379414 399.785645,36.5908177 399.785645,37.1083984 L399.785645,106.360352 Z M489.145508,70.8027344 C489.145508,76.9619449 488.472663,82.4999754 487.126953,87.4169922 C485.781243,92.334009 483.840345,96.5263498 481.304199,99.9941406 C478.768054,103.461931 475.649677,106.127432 471.948975,107.990723 C468.248273,109.854013 464.042992,110.785645 459.333008,110.785645 C457.003895,110.785645 454.830088,110.565676 452.811523,110.125732 C450.792959,109.685789 448.864999,108.974126 447.027588,107.990723 C445.190176,107.007319 443.378671,105.765144 441.593018,104.26416 C439.807364,102.763176 437.982919,100.951671 436.119629,98.8295898 L436.119629,106.360352 C436.119629,106.92969 435.977296,107.408445 435.692627,107.796631 C435.407958,108.184816 434.942142,108.508299 434.295166,108.76709 C433.64819,109.02588 432.781255,109.207031 431.694336,109.310547 C430.607416,109.414063 429.287605,109.46582 427.734863,109.46582 C426.130363,109.46582 424.797613,109.414063 423.736572,109.310547 C422.675532,109.207031 421.821536,109.02588 421.174561,108.76709 C420.527585,108.508299 420.074708,108.184816 419.815918,107.796631 C419.557128,107.408445 419.427734,106.92969 419.427734,106.360352 L419.427734,4.26806641 C419.427734,3.75048569 419.583006,3.28467004 419.893555,2.87060547 C420.204103,2.4565409 420.734615,2.10717916 421.485107,1.82250977 C422.235599,1.53784037 423.231927,1.31787187 424.474121,1.16259766 C425.716315,1.00732344 427.294912,0.9296875 429.209961,0.9296875 C431.12501,0.9296875 432.703607,1.00732344 433.945801,1.16259766 C435.187994,1.31787187 436.184322,1.53784037 436.934814,1.82250977 C437.685306,2.10717916 438.215819,2.4565409 438.526367,2.87060547 C438.836916,3.28467004 438.992188,3.75048569 438.992188,4.26806641 L438.992188,42.5429688 C440.751962,40.7831943 442.51171,39.2822328 444.271484,38.0400391 C446.031259,36.7978454 447.791007,35.7756388 449.550781,34.9733887 C451.310556,34.1711386 453.122061,33.588869 454.985352,33.2265625 C456.848642,32.864256 458.815419,32.6831055 460.885742,32.6831055 C466.009791,32.6831055 470.357404,33.705312 473.928711,35.7497559 C477.500018,37.7941997 480.411366,40.5502756 482.662842,44.0180664 C484.914318,47.4858572 486.557612,51.5358655 487.592773,56.1682129 C488.627935,60.8005603 489.145508,65.6786853 489.145508,70.8027344 Z M468.882324,72.2001953 C468.882324,69.2499852 468.662356,66.403334 468.222412,63.6601562 C467.782469,60.9169785 467.019048,58.4843856 465.932129,56.3623047 C464.845209,54.2402238 463.434823,52.5451724 461.700928,51.2770996 C459.967032,50.0090269 457.780287,49.375 455.140625,49.375 C453.846673,49.375 452.578619,49.5561505 451.336426,49.918457 C450.094232,50.2807635 448.813239,50.9018511 447.493408,51.7817383 C446.173577,52.6616255 444.814948,53.800286 443.41748,55.1977539 C442.020013,56.5952218 440.54493,58.3290912 438.992188,60.3994141 L438.992188,83.3798828 C441.735365,86.8994317 444.362048,89.5778717 446.872314,91.4152832 C449.382581,93.2526947 452.009264,94.1713867 454.752441,94.1713867 C457.288587,94.1713867 459.436515,93.5244205 461.196289,92.2304688 C462.956063,90.936517 464.418207,89.2544049 465.582764,87.184082 C466.74732,85.1137592 467.588376,82.7588023 468.105957,80.1191406 C468.623538,77.479479 468.882324,74.8398569 468.882324,72.2001953 Z" id="hub" fill="#f22613"></path>
    </g>
</svg>